<?xml version="1.0" encoding="UTF-8" standalone="no"?>
<!-- Created with Inkscape (http://www.inkscape.org/) -->

<svg
   xmlns:dc="http://purl.org/dc/elements/1.1/"
   xmlns:cc="http://creativecommons.org/ns#"
   xmlns:rdf="http://www.w3.org/1999/02/22-rdf-syntax-ns#"
   xmlns:svg="http://www.w3.org/2000/svg"
   xmlns="http://www.w3.org/2000/svg"
   xmlns:xlink="http://www.w3.org/1999/xlink"
   xmlns:sodipodi="http://sodipodi.sourceforge.net/DTD/sodipodi-0.dtd"
   xmlns:inkscape="http://www.inkscape.org/namespaces/inkscape"
   version="1.1"
   id="svg815"
   xml:space="preserve"
   width="384"
   height="576"
   viewBox="0 0 384 576"
   sodipodi:docname="rise3.svg"
   inkscape:version="0.92.3 (2405546, 2018-03-11)"><metadata
     id="metadata821"><rdf:RDF><cc:Work
         rdf:about=""><dc:format>image/svg+xml</dc:format><dc:type
           rdf:resource="http://purl.org/dc/dcmitype/StillImage" /><dc:title></dc:title></cc:Work></rdf:RDF></metadata><defs
     id="defs819"><pattern
       inkscape:collect="always"
       xlink:href="#b-8"
       id="pattern1983"
       patternTransform="translate(-305.13163,95.505391)" /><linearGradient
       y2="-3"
       x2="100"
       y1="33"
       x1="100"
       gradientUnits="userSpaceOnUse"
       id="a"><stop
         id="stop937"
         stop-opacity="0"
         stop-color="#000"
         offset="0" /><stop
         id="stop939"
         stop-opacity="1"
         stop-color="#000"
         offset="1" /></linearGradient><linearGradient
       y2="97"
       x2="100"
       y1="135"
       x1="100"
       gradientUnits="userSpaceOnUse"
       id="b"><stop
         id="stop942"
         stop-opacity="0"
         stop-color="#000"
         offset="0" /><stop
         id="stop944"
         stop-opacity="1"
         stop-color="#000"
         offset="1" /></linearGradient><linearGradient
       inkscape:collect="always"
       xlink:href="#a"
       id="linearGradient4824"
       gradientUnits="userSpaceOnUse"
       x1="100"
       y1="33"
       x2="100"
       y2="-3" /><linearGradient
       inkscape:collect="always"
       xlink:href="#b"
       id="linearGradient4826"
       gradientUnits="userSpaceOnUse"
       x1="100"
       y1="135"
       x2="100"
       y2="97" /><linearGradient
       gradientTransform="rotate(-120,28.017843,-12.2192)"
       y2="100%"
       y1="0"
       x2="0"
       x1="0"
       gradientUnits="userSpaceOnUse"
       id="a-0"><stop
         id="stop1031"
         stop-color="#ffffff"
         offset="0" /><stop
         id="stop1033"
         stop-color="#4FE"
         offset="1" /></linearGradient><pattern
       viewBox="0 0 1080 900"
       y="0"
       x="0"
       height="450"
       width="540"
       id="b-8"
       patternUnits="userSpaceOnUse"><g
         id="g1174"
         fill-opacity="0.1"><polygon
           id="polygon1036"
           points="90 150 0 300 180 300"
           fill="#444" /><polygon
           id="polygon1038"
           points="90 150 180 0 0 0" /><polygon
           id="polygon1040"
           points="270 150 360 0 180 0"
           fill="#AAA" /><polygon
           id="polygon1042"
           points="450 150 360 300 540 300"
           fill="#DDD" /><polygon
           id="polygon1044"
           points="450 150 540 0 360 0"
           fill="#999" /><polygon
           id="polygon1046"
           points="630 150 540 300 720 300" /><polygon
           id="polygon1048"
           points="630 150 720 0 540 0"
           fill="#DDD" /><polygon
           id="polygon1050"
           points="810 150 720 300 900 300"
           fill="#444" /><polygon
           id="polygon1052"
           points="810 150 900 0 720 0"
           fill="#FFF" /><polygon
           id="polygon1054"
           points="990 150 900 300 1080 300"
           fill="#DDD" /><polygon
           id="polygon1056"
           points="990 150 1080 0 900 0"
           fill="#444" /><polygon
           id="polygon1058"
           points="90 450 0 600 180 600"
           fill="#DDD" /><polygon
           id="polygon1060"
           points="90 450 180 300 0 300" /><polygon
           id="polygon1062"
           points="270 450 180 600 360 600"
           fill="#666" /><polygon
           id="polygon1064"
           points="270 450 360 300 180 300"
           fill="#AAA" /><polygon
           id="polygon1066"
           points="450 450 360 600 540 600"
           fill="#DDD" /><polygon
           id="polygon1068"
           points="450 450 540 300 360 300"
           fill="#999" /><polygon
           id="polygon1070"
           points="630 450 540 600 720 600"
           fill="#999" /><polygon
           id="polygon1072"
           points="630 450 720 300 540 300"
           fill="#FFF" /><polygon
           id="polygon1074"
           points="810 450 720 600 900 600" /><polygon
           id="polygon1076"
           points="810 450 900 300 720 300"
           fill="#DDD" /><polygon
           id="polygon1078"
           points="990 450 900 600 1080 600"
           fill="#AAA" /><polygon
           id="polygon1080"
           points="990 450 1080 300 900 300"
           fill="#444" /><polygon
           id="polygon1082"
           points="90 750 0 900 180 900"
           fill="#222" /><polygon
           id="polygon1084"
           points="270 750 180 900 360 900" /><polygon
           id="polygon1086"
           points="270 750 360 600 180 600"
           fill="#DDD" /><polygon
           id="polygon1088"
           points="450 750 540 600 360 600" /><polygon
           id="polygon1090"
           points="630 750 540 900 720 900" /><polygon
           id="polygon1092"
           points="630 750 720 600 540 600"
           fill="#444" /><polygon
           id="polygon1094"
           points="810 750 720 900 900 900"
           fill="#AAA" /><polygon
           id="polygon1096"
           points="810 750 900 600 720 600"
           fill="#666" /><polygon
           id="polygon1098"
           points="990 750 900 900 1080 900"
           fill="#999" /><polygon
           id="polygon1100"
           points="180 0 90 150 270 150"
           fill="#999" /><polygon
           id="polygon1102"
           points="360 0 270 150 450 150"
           fill="#444" /><polygon
           id="polygon1104"
           points="540 0 450 150 630 150"
           fill="#FFF" /><polygon
           id="polygon1106"
           points="900 0 810 150 990 150" /><polygon
           id="polygon1108"
           points="0 300 -90 450 90 450"
           fill="#222" /><polygon
           id="polygon1110"
           points="0 300 90 150 -90 150"
           fill="#FFF" /><polygon
           id="polygon1112"
           points="180 300 90 450 270 450"
           fill="#FFF" /><polygon
           id="polygon1114"
           points="180 300 270 150 90 150"
           fill="#666" /><polygon
           id="polygon1116"
           points="360 300 270 450 450 450"
           fill="#222" /><polygon
           id="polygon1118"
           points="360 300 450 150 270 150"
           fill="#FFF" /><polygon
           id="polygon1120"
           points="540 300 450 450 630 450"
           fill="#444" /><polygon
           id="polygon1122"
           points="540 300 630 150 450 150"
           fill="#222" /><polygon
           id="polygon1124"
           points="720 300 630 450 810 450"
           fill="#AAA" /><polygon
           id="polygon1126"
           points="720 300 810 150 630 150"
           fill="#666" /><polygon
           id="polygon1128"
           points="900 300 810 450 990 450"
           fill="#FFF" /><polygon
           id="polygon1130"
           points="900 300 990 150 810 150"
           fill="#999" /><polygon
           id="polygon1132"
           points="0 600 -90 750 90 750" /><polygon
           id="polygon1134"
           points="0 600 90 450 -90 450"
           fill="#666" /><polygon
           id="polygon1136"
           points="180 600 90 750 270 750"
           fill="#AAA" /><polygon
           id="polygon1138"
           points="180 600 270 450 90 450"
           fill="#444" /><polygon
           id="polygon1140"
           points="360 600 270 750 450 750"
           fill="#444" /><polygon
           id="polygon1142"
           points="360 600 450 450 270 450"
           fill="#999" /><polygon
           id="polygon1144"
           points="540 600 630 450 450 450"
           fill="#666" /><polygon
           id="polygon1146"
           points="720 600 630 750 810 750"
           fill="#222" /><polygon
           id="polygon1148"
           points="900 600 810 750 990 750"
           fill="#FFF" /><polygon
           id="polygon1150"
           points="900 600 990 450 810 450"
           fill="#222" /><polygon
           id="polygon1152"
           points="0 900 90 750 -90 750"
           fill="#DDD" /><polygon
           id="polygon1154"
           points="180 900 270 750 90 750"
           fill="#444" /><polygon
           id="polygon1156"
           points="360 900 450 750 270 750"
           fill="#FFF" /><polygon
           id="polygon1158"
           points="540 900 630 750 450 750"
           fill="#AAA" /><polygon
           id="polygon1160"
           points="720 900 810 750 630 750"
           fill="#FFF" /><polygon
           id="polygon1162"
           points="900 900 990 750 810 750"
           fill="#222" /><polygon
           id="polygon1164"
           points="1080 300 990 450 1170 450"
           fill="#222" /><polygon
           id="polygon1166"
           points="1080 300 1170 150 990 150"
           fill="#FFF" /><polygon
           id="polygon1168"
           points="1080 600 990 750 1170 750" /><polygon
           id="polygon1170"
           points="1080 600 1170 450 990 450"
           fill="#666" /><polygon
           id="polygon1172"
           points="1080 900 1170 750 990 750"
           fill="#DDD" /></g></pattern><linearGradient
       y2="777"
       x2="600"
       y1="25"
       x1="600"
       gradientUnits="userSpaceOnUse"
       id="a-2"><stop
         id="stop2083"
         stop-color="#ff0000"
         offset="0" /><stop
         id="stop2085"
         stop-color="#E0F"
         offset="1" /></linearGradient><linearGradient
       y2="777"
       x2="650"
       y1="25"
       x1="650"
       gradientUnits="userSpaceOnUse"
       id="b-1"><stop
         id="stop2088"
         stop-color="#ff0019"
         offset="0" /><stop
         id="stop2090"
         stop-color="#ce00f3"
         offset="1" /></linearGradient><linearGradient
       y2="777"
       x2="700"
       y1="25"
       x1="700"
       gradientUnits="userSpaceOnUse"
       id="c"><stop
         id="stop2093"
         stop-color="#ff0031"
         offset="0" /><stop
         id="stop2095"
         stop-color="#b000e6"
         offset="1" /></linearGradient><linearGradient
       y2="777"
       x2="750"
       y1="25"
       x1="750"
       gradientUnits="userSpaceOnUse"
       id="d"><stop
         id="stop2098"
         stop-color="#ff004a"
         offset="0" /><stop
         id="stop2100"
         stop-color="#9400da"
         offset="1" /></linearGradient><linearGradient
       y2="777"
       x2="800"
       y1="25"
       x1="800"
       gradientUnits="userSpaceOnUse"
       id="e"><stop
         id="stop2103"
         stop-color="#ff0063"
         offset="0" /><stop
         id="stop2105"
         stop-color="#7a00ce"
         offset="1" /></linearGradient><linearGradient
       y2="777"
       x2="850"
       y1="25"
       x1="850"
       gradientUnits="userSpaceOnUse"
       id="f"><stop
         id="stop2108"
         stop-color="#ff007c"
         offset="0" /><stop
         id="stop2110"
         stop-color="#6200c1"
         offset="1" /></linearGradient><linearGradient
       y2="777"
       x2="900"
       y1="25"
       x1="900"
       gradientUnits="userSpaceOnUse"
       id="g"><stop
         id="stop2113"
         stop-color="#ff0094"
         offset="0" /><stop
         id="stop2115"
         stop-color="#4d00b5"
         offset="1" /></linearGradient><linearGradient
       y2="777"
       x2="950"
       y1="25"
       x1="950"
       gradientUnits="userSpaceOnUse"
       id="h"><stop
         id="stop2118"
         stop-color="#ff00ad"
         offset="0" /><stop
         id="stop2120"
         stop-color="#3900a8"
         offset="1" /></linearGradient><linearGradient
       y2="777"
       x2="1000"
       y1="25"
       x1="1000"
       gradientUnits="userSpaceOnUse"
       id="i"><stop
         id="stop2123"
         stop-color="#ff00c6"
         offset="0" /><stop
         id="stop2125"
         stop-color="#28009c"
         offset="1" /></linearGradient><linearGradient
       y2="777"
       x2="1050"
       y1="25"
       x1="1050"
       gradientUnits="userSpaceOnUse"
       id="j"><stop
         id="stop2128"
         stop-color="#ff00df"
         offset="0" /><stop
         id="stop2130"
         stop-color="#180090"
         offset="1" /></linearGradient><linearGradient
       y2="777"
       x2="1100"
       y1="25"
       x1="1100"
       gradientUnits="userSpaceOnUse"
       id="k"><stop
         id="stop2133"
         stop-color="#ff00f7"
         offset="0" /><stop
         id="stop2135"
         stop-color="#0b0083"
         offset="1" /></linearGradient><linearGradient
       y2="777"
       x2="1150"
       y1="25"
       x1="1150"
       gradientUnits="userSpaceOnUse"
       id="l"><stop
         id="stop2138"
         stop-color="#E0F"
         offset="0" /><stop
         id="stop2140"
         stop-color="#007"
         offset="1" /></linearGradient><radialGradient
       gradientUnits="userSpaceOnUse"
       r="60%"
       cy="500"
       cx="500"
       id="a-5"><stop
         id="stop2388"
         stop-color="#ff0000"
         offset="0" /><stop
         id="stop2390"
         stop-color="#900"
         offset="1" /></radialGradient><radialGradient
       gradientUnits="userSpaceOnUse"
       r="70%"
       cy="500"
       cx="500"
       id="b-5"><stop
         id="stop2393"
         stop-opacity="1"
         stop-color="#FF0"
         offset="0" /><stop
         id="stop2395"
         stop-opacity="0"
         stop-color="#FF0"
         offset="1" /></radialGradient><linearGradient
       gradientTransform="rotate(240)"
       y2="100%"
       y1="0"
       x2="0"
       x1="0"
       gradientUnits="userSpaceOnUse"
       id="a-01"><stop
         id="stop2669"
         stop-color="#ffffff"
         offset="0" /><stop
         id="stop2671"
         stop-color="#4FE"
         offset="1" /></linearGradient><pattern
       viewBox="0 0 1080 900"
       y="0"
       x="0"
       height="450"
       width="540"
       id="b-4"
       patternUnits="userSpaceOnUse"><g
         id="g2812"
         fill-opacity="0.1"><polygon
           id="polygon2674"
           points="90 150 0 300 180 300"
           fill="#444" /><polygon
           id="polygon2676"
           points="90 150 180 0 0 0" /><polygon
           id="polygon2678"
           points="270 150 360 0 180 0"
           fill="#AAA" /><polygon
           id="polygon2680"
           points="450 150 360 300 540 300"
           fill="#DDD" /><polygon
           id="polygon2682"
           points="450 150 540 0 360 0"
           fill="#999" /><polygon
           id="polygon2684"
           points="630 150 540 300 720 300" /><polygon
           id="polygon2686"
           points="630 150 720 0 540 0"
           fill="#DDD" /><polygon
           id="polygon2688"
           points="810 150 720 300 900 300"
           fill="#444" /><polygon
           id="polygon2690"
           points="810 150 900 0 720 0"
           fill="#FFF" /><polygon
           id="polygon2692"
           points="990 150 900 300 1080 300"
           fill="#DDD" /><polygon
           id="polygon2694"
           points="990 150 1080 0 900 0"
           fill="#444" /><polygon
           id="polygon2696"
           points="90 450 0 600 180 600"
           fill="#DDD" /><polygon
           id="polygon2698"
           points="90 450 180 300 0 300" /><polygon
           id="polygon2700"
           points="270 450 180 600 360 600"
           fill="#666" /><polygon
           id="polygon2702"
           points="270 450 360 300 180 300"
           fill="#AAA" /><polygon
           id="polygon2704"
           points="450 450 360 600 540 600"
           fill="#DDD" /><polygon
           id="polygon2706"
           points="450 450 540 300 360 300"
           fill="#999" /><polygon
           id="polygon2708"
           points="630 450 540 600 720 600"
           fill="#999" /><polygon
           id="polygon2710"
           points="630 450 720 300 540 300"
           fill="#FFF" /><polygon
           id="polygon2712"
           points="810 450 720 600 900 600" /><polygon
           id="polygon2714"
           points="810 450 900 300 720 300"
           fill="#DDD" /><polygon
           id="polygon2716"
           points="990 450 900 600 1080 600"
           fill="#AAA" /><polygon
           id="polygon2718"
           points="990 450 1080 300 900 300"
           fill="#444" /><polygon
           id="polygon2720"
           points="90 750 0 900 180 900"
           fill="#222" /><polygon
           id="polygon2722"
           points="270 750 180 900 360 900" /><polygon
           id="polygon2724"
           points="270 750 360 600 180 600"
           fill="#DDD" /><polygon
           id="polygon2726"
           points="450 750 540 600 360 600" /><polygon
           id="polygon2728"
           points="630 750 540 900 720 900" /><polygon
           id="polygon2730"
           points="630 750 720 600 540 600"
           fill="#444" /><polygon
           id="polygon2732"
           points="810 750 720 900 900 900"
           fill="#AAA" /><polygon
           id="polygon2734"
           points="810 750 900 600 720 600"
           fill="#666" /><polygon
           id="polygon2736"
           points="990 750 900 900 1080 900"
           fill="#999" /><polygon
           id="polygon2738"
           points="180 0 90 150 270 150"
           fill="#999" /><polygon
           id="polygon2740"
           points="360 0 270 150 450 150"
           fill="#444" /><polygon
           id="polygon2742"
           points="540 0 450 150 630 150"
           fill="#FFF" /><polygon
           id="polygon2744"
           points="900 0 810 150 990 150" /><polygon
           id="polygon2746"
           points="0 300 -90 450 90 450"
           fill="#222" /><polygon
           id="polygon2748"
           points="0 300 90 150 -90 150"
           fill="#FFF" /><polygon
           id="polygon2750"
           points="180 300 90 450 270 450"
           fill="#FFF" /><polygon
           id="polygon2752"
           points="180 300 270 150 90 150"
           fill="#666" /><polygon
           id="polygon2754"
           points="360 300 270 450 450 450"
           fill="#222" /><polygon
           id="polygon2756"
           points="360 300 450 150 270 150"
           fill="#FFF" /><polygon
           id="polygon2758"
           points="540 300 450 450 630 450"
           fill="#444" /><polygon
           id="polygon2760"
           points="540 300 630 150 450 150"
           fill="#222" /><polygon
           id="polygon2762"
           points="720 300 630 450 810 450"
           fill="#AAA" /><polygon
           id="polygon2764"
           points="720 300 810 150 630 150"
           fill="#666" /><polygon
           id="polygon2766"
           points="900 300 810 450 990 450"
           fill="#FFF" /><polygon
           id="polygon2768"
           points="900 300 990 150 810 150"
           fill="#999" /><polygon
           id="polygon2770"
           points="0 600 -90 750 90 750" /><polygon
           id="polygon2772"
           points="0 600 90 450 -90 450"
           fill="#666" /><polygon
           id="polygon2774"
           points="180 600 90 750 270 750"
           fill="#AAA" /><polygon
           id="polygon2776"
           points="180 600 270 450 90 450"
           fill="#444" /><polygon
           id="polygon2778"
           points="360 600 270 750 450 750"
           fill="#444" /><polygon
           id="polygon2780"
           points="360 600 450 450 270 450"
           fill="#999" /><polygon
           id="polygon2782"
           points="540 600 630 450 450 450"
           fill="#666" /><polygon
           id="polygon2784"
           points="720 600 630 750 810 750"
           fill="#222" /><polygon
           id="polygon2786"
           points="900 600 810 750 990 750"
           fill="#FFF" /><polygon
           id="polygon2788"
           points="900 600 990 450 810 450"
           fill="#222" /><polygon
           id="polygon2790"
           points="0 900 90 750 -90 750"
           fill="#DDD" /><polygon
           id="polygon2792"
           points="180 900 270 750 90 750"
           fill="#444" /><polygon
           id="polygon2794"
           points="360 900 450 750 270 750"
           fill="#FFF" /><polygon
           id="polygon2796"
           points="540 900 630 750 450 750"
           fill="#AAA" /><polygon
           id="polygon2798"
           points="720 900 810 750 630 750"
           fill="#FFF" /><polygon
           id="polygon2800"
           points="900 900 990 750 810 750"
           fill="#222" /><polygon
           id="polygon2802"
           points="1080 300 990 450 1170 450"
           fill="#222" /><polygon
           id="polygon2804"
           points="1080 300 1170 150 990 150"
           fill="#FFF" /><polygon
           id="polygon2806"
           points="1080 600 990 750 1170 750" /><polygon
           id="polygon2808"
           points="1080 600 1170 450 990 450"
           fill="#666" /><polygon
           id="polygon2810"
           points="1080 900 1170 750 990 750"
           fill="#DDD" /></g></pattern></defs><sodipodi:namedview
     pagecolor="#ffffff"
     bordercolor="#666666"
     borderopacity="1"
     objecttolerance="10"
     gridtolerance="10"
     guidetolerance="10"
     inkscape:pageopacity="0"
     inkscape:pageshadow="2"
     inkscape:window-width="3840"
     inkscape:window-height="2097"
     id="namedview817"
     showgrid="false"
     inkscape:zoom="1"
     inkscape:cx="211.47884"
     inkscape:cy="279.89133"
     inkscape:window-x="-8"
     inkscape:window-y="-8"
     inkscape:window-maximized="1"
     inkscape:current-layer="layer9"
     showguides="false" /><g
     inkscape:groupmode="layer"
     id="layer7"
     inkscape:label="pattern"><g
       id="g4782"
       transform="matrix(0.83941909,0,0,0.83941909,49.148481,52.557386)"><g
         inkscape:tile-y0="191.48136"
         inkscape:tile-x0="-28.816963"
         inkscape:tile-h="100"
         inkscape:tile-w="100"
         inkscape:tile-cy="241.48136"
         inkscape:tile-cx="21.183037"
         transform="matrix(0.5,0,0,0.5,-28.816963,191.48136)"
         id="g980"
         style="display:inline"><rect
           style="fill:#ee5522"
           y="0"
           x="0"
           width="200"
           height="200"
           id="rect935" /><g
           style="fill:#ca481d;fill-opacity:0.6"
           id="g953"><rect
             y="0"
             x="100"
             width="100"
             height="100"
             id="rect949" /><rect
             x="0"
             y="100"
             width="100"
             height="100"
             id="rect951" /></g><g
           style="fill-opacity:0.5"
           id="g959"><polygon
             style="fill:url(#linearGradient4824)"
             points="200,0 100,30 0,0 "
             id="polygon955" /><polygon
             style="fill:url(#linearGradient4826)"
             points="0,100 200,100 200,130 100,100 0,130 "
             id="polygon957" /></g></g><use
         id="use4726"
         xlink:href="#g980"
         inkscape:tiled-clone-of="#g980"
         y="0"
         x="0"
         width="100%"
         height="100%" /><use
         id="use4728"
         transform="translate(0,100)"
         xlink:href="#g980"
         inkscape:tiled-clone-of="#g980"
         y="0"
         x="0"
         width="100%"
         height="100%" /><use
         id="use4730"
         transform="translate(0,200)"
         xlink:href="#g980"
         inkscape:tiled-clone-of="#g980"
         y="0"
         x="0"
         width="100%"
         height="100%" /><use
         id="use4732"
         transform="translate(0,300)"
         xlink:href="#g980"
         inkscape:tiled-clone-of="#g980"
         y="0"
         x="0"
         width="100%"
         height="100%" /><use
         id="use4734"
         transform="translate(100)"
         xlink:href="#g980"
         inkscape:tiled-clone-of="#g980"
         y="0"
         x="0"
         width="100%"
         height="100%" /><use
         id="use4736"
         transform="translate(100,100)"
         xlink:href="#g980"
         inkscape:tiled-clone-of="#g980"
         y="0"
         x="0"
         width="100%"
         height="100%" /><use
         id="use4738"
         transform="translate(100,200)"
         xlink:href="#g980"
         inkscape:tiled-clone-of="#g980"
         y="0"
         x="0"
         width="100%"
         height="100%" /><use
         id="use4740"
         transform="translate(100,300)"
         xlink:href="#g980"
         inkscape:tiled-clone-of="#g980"
         y="0"
         x="0"
         width="100%"
         height="100%" /><use
         id="use4742"
         transform="translate(200)"
         xlink:href="#g980"
         inkscape:tiled-clone-of="#g980"
         y="0"
         x="0"
         width="100%"
         height="100%" /><use
         id="use4744"
         transform="translate(200,100)"
         xlink:href="#g980"
         inkscape:tiled-clone-of="#g980"
         y="0"
         x="0"
         width="100%"
         height="100%" /><use
         id="use4746"
         transform="translate(200,200)"
         xlink:href="#g980"
         inkscape:tiled-clone-of="#g980"
         y="0"
         x="0"
         width="100%"
         height="100%" /><use
         id="use4748"
         transform="translate(200,300)"
         xlink:href="#g980"
         inkscape:tiled-clone-of="#g980"
         y="0"
         x="0"
         width="100%"
         height="100%" /><use
         id="use4750"
         transform="translate(300)"
         xlink:href="#g980"
         inkscape:tiled-clone-of="#g980"
         y="0"
         x="0"
         width="100%"
         height="100%" /><use
         id="use4752"
         transform="translate(300,100)"
         xlink:href="#g980"
         inkscape:tiled-clone-of="#g980"
         y="0"
         x="0"
         width="100%"
         height="100%" /><use
         id="use4754"
         transform="translate(300,200)"
         xlink:href="#g980"
         inkscape:tiled-clone-of="#g980"
         y="0"
         x="0"
         width="100%"
         height="100%" /><use
         id="use4756"
         transform="translate(300,300)"
         xlink:href="#g980"
         inkscape:tiled-clone-of="#g980"
         y="0"
         x="0"
         width="100%"
         height="100%" /></g><flowRoot
       xml:space="preserve"
       id="flowRoot4816"
       style="font-style:normal;font-weight:normal;font-size:40px;line-height:1.25;font-family:sans-serif;letter-spacing:0px;word-spacing:0px;fill:#000000;fill-opacity:1;stroke:none;stroke-width:1.75748026;stroke-miterlimit:4;stroke-dasharray:none"
       transform="matrix(1.3673991,0,0,1.1784389,-103.06412,-49.49123)"><flowRegion
         id="flowRegion4818"
         style="stroke-width:1.75748026;stroke-miterlimit:4;stroke-dasharray:none"><rect
           id="rect4820"
           width="325.64313"
           height="83.651497"
           x="53.775936"
           y="351.03735"
           style="stroke-width:1.75748026;stroke-miterlimit:4;stroke-dasharray:none" /></flowRegion><flowPara
         id="flowPara4822"
         style="font-style:italic;font-variant:normal;font-weight:bold;font-stretch:condensed;font-size:53.33333206px;font-family:Arial;-inkscape-font-specification:'Arial Bold Italic Condensed';text-align:center;letter-spacing:1.25000012px;text-anchor:middle;fill:#ffffff;stroke:#ffffff;stroke-width:1.75748026;stroke-miterlimit:4;stroke-dasharray:none;stroke-opacity:1">Supreme</flowPara></flowRoot><rect
       style="fill:#ffffff;fill-opacity:1;stroke:#ffffff;stroke-width:18.89763832;stroke-linecap:round;stroke-linejoin:miter;stroke-miterlimit:10;stroke-dasharray:none;stroke-opacity:0.96464646"
       id="rect4828"
       width="352.82986"
       height="68.41494"
       x="14.639005"
       y="203.75104" /><g
       id="g1265"
       transform="matrix(1.1073651,0,0,1.1073651,-175.56847,-47.203322)"><g
         id="g2227"
         transform="matrix(0.27027635,0,0,0.27027635,176.12035,311.0408)"><rect
           id="rect2081"
           height="800"
           width="1200"
           x="0"
           y="0"
           style="fill:#ff0000" /><g
           id="g2169"><rect
             style="fill:url(#a-2)"
             id="rect2145"
             height="800"
             width="1200"
             x="0"
             y="0" /><rect
             style="fill:url(#b-1)"
             id="rect2147"
             height="800"
             width="1100"
             x="100"
             y="0" /><rect
             id="rect2149"
             height="800"
             width="1000"
             x="200"
             y="0"
             style="fill:url(#c)" /><rect
             id="rect2151"
             height="800"
             width="900"
             x="300"
             y="0"
             style="fill:url(#d)" /><rect
             id="rect2153"
             height="800"
             width="800"
             x="400"
             y="0"
             style="fill:url(#e)" /><rect
             id="rect2155"
             height="800"
             width="700"
             x="500"
             y="0"
             style="fill:url(#f)" /><rect
             id="rect2157"
             height="800"
             width="600"
             x="600"
             y="0"
             style="fill:url(#g)" /><rect
             id="rect2159"
             height="800"
             width="500"
             x="700"
             y="0"
             style="fill:url(#h)" /><rect
             id="rect2161"
             height="800"
             width="400"
             x="800"
             y="0"
             style="fill:url(#i)" /><rect
             id="rect2163"
             height="800"
             width="300"
             x="900"
             y="0"
             style="fill:url(#j)" /><rect
             id="rect2165"
             height="800"
             width="200"
             x="1000"
             y="0"
             style="fill:url(#k)" /><rect
             id="rect2167"
             height="800"
             width="100"
             x="1100"
             y="0"
             style="fill:url(#l)" /></g></g></g></g><g
     inkscape:groupmode="layer"
     id="layer9"
     inkscape:label="green" /><g
     id="g823"
     inkscape:groupmode="layer"
     inkscape:label="outline top"
     transform="matrix(1.3333333,0,0,-1.3333333,0,576)"
     style="display:inline"
     sodipodi:insensitive="true"><path
       d="m 22.5,225.747 h 243 V 394.5 h -243 z"
       style="fill:none;stroke:#5a5758;stroke-width:1.0006299;stroke-linecap:butt;stroke-linejoin:miter;stroke-miterlimit:10;stroke-dasharray:none;stroke-opacity:1"
       id="path825"
       inkscape:connector-curvature="0" /></g><g
     style="display:inline"
     inkscape:label="outline inside bottom copy"
     id="g856"
     inkscape:groupmode="layer"><g
       inkscape:groupmode="layer"
       id="layer5"
       inkscape:label="rect"
       style="display:none"><path
         d="m 22.5,34.496 h 243 V 203.25 h -243 z"
         style="display:inline;opacity:1;fill:none;stroke:#5a5758;stroke-width:5.6692915;stroke-linecap:round;stroke-linejoin:miter;stroke-miterlimit:10;stroke-dasharray:none;stroke-opacity:1"
         id="path854"
         inkscape:connector-curvature="0"
         transform="matrix(1.3333333,0,0,-1.3333333,0,576)" /></g><g
       inkscape:groupmode="layer"
       id="layer4"
       inkscape:label="rount"
       style="display:inline"><rect
         style="display:inline;fill:none;fill-opacity:1;stroke:#fffdfd;stroke-width:16;stroke-linecap:round;stroke-linejoin:miter;stroke-miterlimit:10;stroke-dasharray:none;stroke-opacity:1"
         id="rect858"
         width="343.89999"
         height="244.90498"
         x="19.988016"
         y="294.76767"
         rx="20"
         ry="20" /></g></g><g
     inkscape:groupmode="layer"
     id="layer6"
     inkscape:label="cutround"
     style="display:inline"><rect
       style="fill:none;fill-opacity:1;stroke:#ffffff;stroke-width:18.89763832;stroke-linecap:round;stroke-linejoin:miter;stroke-miterlimit:10;stroke-dasharray:none;stroke-opacity:1"
       id="rect867"
       width="360"
       height="261.112"
       x="12.846474"
       y="287.70126" /></g><g
     transform="matrix(1.3333333,0,0,-1.3333333,0,576)"
     inkscape:label="outline bottom"
     inkscape:groupmode="layer"
     id="g834"
     style="display:none;opacity:1"
     sodipodi:insensitive="true"><path
       inkscape:connector-curvature="0"
       id="path832-5"
       style="display:inline;fill:none;stroke:#5a5758;stroke-width:5.6692915;stroke-linecap:butt;stroke-linejoin:miter;stroke-miterlimit:10;stroke-dasharray:none;stroke-opacity:1"
       d="M 14.991012,27.245511 H 272.91601 V 210.92425 H 14.991012 Z" /></g><g
     inkscape:groupmode="layer"
     id="layer3"
     inkscape:label="outline inside bottom"
     style="display:none"
     sodipodi:insensitive="true"><path
       transform="matrix(1.3333333,0,0,-1.3333333,0,576)"
       inkscape:connector-curvature="0"
       id="path832"
       style="display:inline;opacity:1;fill:none;stroke:#5a5758;stroke-width:1.0006299;stroke-linecap:butt;stroke-linejoin:miter;stroke-miterlimit:10;stroke-dasharray:none;stroke-opacity:1"
       d="m 22.5,34.496 h 243 V 203.25 h -243 z" /></g><g
     inkscape:groupmode="layer"
     id="layer2"
     inkscape:label="Introduction/Welcome"
     style="display:inline" /><g
     inkscape:groupmode="layer"
     id="layer1"
     inkscape:label="color"
     style="display:inline" /><g
     inkscape:groupmode="layer"
     id="layer8"
     inkscape:label="Vicki"><flowRoot
       xml:space="preserve"
       id="flowRoot2231"
       style="font-style:normal;font-variant:normal;font-weight:normal;font-stretch:normal;font-size:40px;line-height:1.25;font-family:'Solid Edge ANSI1 Symbols';-inkscape-font-specification:'Solid Edge ANSI1 Symbols';letter-spacing:0px;word-spacing:0px;fill:#ffffff;fill-opacity:1;stroke:none;"
       transform="translate(8.0663905,-29.278009)"><flowRegion
         id="flowRegion2233"
         style="font-style:normal;font-variant:normal;font-weight:normal;font-stretch:normal;font-family:'Solid Edge ANSI1 Symbols';-inkscape-font-specification:'Solid Edge ANSI1 Symbols';fill:#ffffff;fill-opacity:1;"><rect
           id="rect2235"
           width="224.05026"
           height="116.5125"
           x="94.705399"
           y="361.19501"
           style="font-style:normal;font-variant:normal;font-weight:normal;font-stretch:normal;font-family:'Solid Edge ANSI1 Symbols';-inkscape-font-specification:'Solid Edge ANSI1 Symbols';fill:#ffffff;fill-opacity:1;" /></flowRegion><flowPara
         id="flowPara2237"
         style="font-style:normal;font-variant:normal;font-weight:normal;font-stretch:normal;font-size:96px;font-family:'Tw Cen MT Condensed Extra Bold';-inkscape-font-specification:'Tw Cen MT Condensed Extra Bold, ';fill:#ffffff;fill-opacity:1;">Vicki</flowPara></flowRoot><ellipse
       style="fill:#ffffff;fill-opacity:1;stroke:#ffffff;stroke-width:1.75269163;stroke-miterlimit:4;stroke-dasharray:none;stroke-opacity:0.96464646"
       id="path2239"
       cx="70.05072"
       cy="489.5177"
       rx="29.123655"
       ry="29.123653" /><flowRoot
       xml:space="preserve"
       id="flowRoot2241"
       style="font-style:normal;font-weight:normal;font-size:40px;line-height:1.25;font-family:sans-serif;letter-spacing:0px;word-spacing:0px;fill:#ffffff;fill-opacity:1;stroke:none;"
       transform="translate(-7.1701245,-1.4937759)"><flowRegion
         id="flowRegion2243"
         style="fill:#ffffff;fill-opacity:1;"><rect
           id="rect2245"
           width="191.50208"
           height="48.99585"
           x="119.80083"
           y="467.55188"
           style="fill:#ffffff;fill-opacity:1;" /></flowRegion><flowPara
         id="flowPara2247"
         style="font-style:normal;font-variant:normal;font-weight:normal;font-stretch:normal;font-family:'Segoe UI';-inkscape-font-specification:'Segoe UI';fill:#ffffff;fill-opacity:1;">R.I.S.E.</flowPara></flowRoot></g></svg>